<svg width="406.68" height="139.311" viewBox="0 0 350 119.895" class="looka-1j8o68f"><g fill="#fdcf44"><path xmlns="http://www.w3.org/2000/svg" d="M155.337 50.507c-11.11-4.521-16.756-5.011-22.734-5.53-5.893-.509-11.995-1.047-23.54-5.676-.859 1.295-1.567 3.81-2.137 6.857 11.87 3.094 17.88 2.857 23.676 2.617 5.865-.241 11.924-.49 23.78 2.654 4.011 1.065 7.135 2.113 9.62 3.127-2.207-1.22-5.016-2.565-8.665-4.05m-1.411 4.073c-11.594-3.077-17.255-2.845-23.253-2.598-5.906.244-12.023.486-24.054-2.637a124 124 0 0 0-.95 7.435c11.736 1.392 17.555.385 23.167-.598 5.779-1.01 11.753-2.055 23.922-.5 4.759.61 8.344 1.35 11.11 2.156-2.455-1.034-5.667-2.124-9.942-3.258m-24.783 4.782c-5.735 1.002-11.676 2.03-23.64.618-.244 2.723-.412 5.24-.503 7.106 12.02-.085 17.692-1.84 23.183-3.542 5.605-1.736 11.4-3.53 23.665-3.53 4.147 0 7.435.209 10.095.555-2.446-.618-5.504-1.194-9.408-1.692-11.898-1.524-17.482-.548-23.392.485m90.256-10.549c5.81.238 11.829.479 23.757-2.636-.59-3.315-1.299-5.886-2.125-6.873-11.608 4.664-17.724 5.2-23.634 5.712-5.978.518-11.625 1.005-22.736 5.53-3.648 1.486-6.46 2.831-8.666 4.054 2.484-1.016 5.61-2.066 9.626-3.13 11.852-3.147 17.915-2.897 23.778-2.657"/><path xmlns="http://www.w3.org/2000/svg" d="M240.134 36.324 227.554 0c-9.104 3.614-13.96 4.034-18.657 4.44-4.802.416-9.337.808-18.26 4.439-12.373 5.038-13.044 8.185-13.403 9.876-.174.812-.38 1.72-1.492 2.312v41.277q.012-.011.024-.028.077-.115.144-.265c.094-.227.164-.5.25-.898.56-2.631 1.498-7.035 17.839-13.684 11.358-4.627 17.403-5.149 23.25-5.656 5.736-.496 11.667-1.007 22.885-5.49"/><path xmlns="http://www.w3.org/2000/svg" d="M221.16 56.219c5.619.982 11.44 1.987 23.194.594a132 132 0 0 0-.91-7.449c-12.067 3.139-18.197 2.899-24.119 2.653-5.998-.246-11.658-.477-23.253 2.6-4.275 1.135-7.485 2.225-9.946 3.261 2.767-.804 6.354-1.546 11.113-2.155 12.165-1.56 18.146-.515 23.921.496m.657 7.363c5.49 1.7 11.162 3.457 23.183 3.543-.104-2.17-.27-4.617-.483-7.11-11.976 1.415-17.923.387-23.66-.616-5.91-1.034-11.493-2.008-23.392-.486-3.902.5-6.961 1.078-9.405 1.693 2.658-.342 5.944-.556 10.092-.556 12.266 0 18.06 1.796 23.665 3.532m-47.976-2.463c.047.22.088.4.13.566V21.069c-1.112-.592-1.317-1.5-1.49-2.312-.36-1.692-1.03-4.839-13.405-9.877-8.922-3.63-13.457-4.023-18.258-4.438-4.699-.407-9.552-.828-18.653-4.44L109.86 36.284c11.223 4.485 17.154 5 22.895 5.495 5.846.508 11.89 1.03 23.249 5.654 16.341 6.65 17.278 11.056 17.837 13.687"/></g><path d="M23.557 103.279q1.885 1.183 2.871 2.893t.987 3.814q0 4.954-3.77 7.585-2.544 1.841-6.884 2.323h-.175q-.614 0-1.009-.394-.526-.482-.526-1.14v-3.157q0-.57.395-1.008t.964-.526q2.061-.22 3.2-.965.878-.526 1.185-1.359.175-.482.175-1.227 0-.482-.175-.833t-.614-.658q-1.272-.877-3.288-1.49l-.702-.22q-2.192-.613-4.033-1.008-.395-.088-1.272-.307l-.482-.131q-1.578-.395-3.332-1.096-2.586-1.096-4.252-2.762-1.93-1.93-1.93-5.086 0-4.34 3.333-7.059 2.28-1.929 6.4-2.455.702-.087 1.206.395t.504 1.14v3.156q0 .57-.35 1.009t-.9.504-1.117.241q-1.272.482-1.798.943t-.745.942q-.22.746-.22 1.403 0 .35.395.745.614.614 1.798 1.096.526.22 1.841.658l5.48 1.36.263.087q2.06.57 2.982.877 2.06.701 3.595 1.71m-7.322-9.909q-.526-.131-.855-.548t-.329-.986v-3.2q0-.702.57-1.184.22-.22.57-.285t.658-.022q3.858.614 6.27 2.63 3.287 2.719 3.506 6.927.044.614-.416 1.118t-1.118.504h-3.42q-.57 0-1.008-.394t-.482-.965q-.176-1.14-.745-1.885-.921-1.096-2.85-1.666-.132 0-.176-.044zm-5.13 20.124q.527.087.877.526t.351.964v3.244q0 .702-.526 1.184-.438.35-1.008.35h-.22q-4.077-.613-6.707-2.673-3.42-2.719-3.858-7.585-.088-.701.394-1.206t1.14-.504h3.464q.613 0 1.052.417t.482 1.03q.132 2.192 2.148 3.376.921.526 2.412.877m28.383-26.48q.657 0 1.118.46t.46 1.118v3.2q0 .658-.46 1.118t-1.118.46h-4.516q-.614 0-1.074-.46t-.46-1.118v-3.2q0-.658.46-1.118t1.074-.46zm19.597 0q.613 0 1.074.46t.46 1.118v3.2q0 .658-.46 1.118t-1.074.46h-8.812v24.902q0 .614-.46 1.074t-1.075.46h-3.376q-.657 0-1.118-.46t-.46-1.074v-29.68q0-.658.46-1.118t1.118-.46zm20.886 26.436q.526.175.833.592t.307.942v3.376q0 .701-.57 1.184-.439.35-.965.35-.22 0-.307-.043-4.077-.79-7.014-3.77-3.946-4.034-3.946-10.61V88.59q0-.657.46-1.117t1.074-.46h3.376q.658 0 1.118.46t.46 1.118v16.966q0 4.165 2.368 6.357 1.227 1.14 2.806 1.535m15.125-26.437q.658 0 1.118.46t.46 1.119v16.879q0 6.576-3.945 10.61-2.938 2.98-7.015 3.77-.088.043-.307.043-.526 0-.964-.35-.57-.439-.57-1.228v-3.376q0-.482.306-.898t.833-.592q1.666-.483 2.806-1.535 2.368-2.104 2.368-6.357V88.592q0-.658.46-1.118t1.118-.46zm31.803 1.14q2.674 1.009 4.822 3.244 4.603 4.648 4.603 11.86t-4.603 11.903q-2.148 2.235-4.822 3.244-2.762 1.14-5.656 1.14h-12.407q-.614 0-1.074-.46t-.46-1.075v-3.156q0-.658.46-1.118t1.074-.46h12.275q3.902 0 6.336-2.85t2.433-7.146-2.433-7.147-6.336-2.85h-12.275q-.614 0-1.074-.46t-.46-1.118v-3.156q0-.614.46-1.074t1.074-.46h12.407q2.894 0 5.656 1.14m46.226-.308q.22.395.197.833t-.285.79l-12.144 17.536v11.267q0 .614-.46 1.074t-1.074.46h-3.376q-.658 0-1.118-.46t-.46-1.074v-12.845q0-.439.307-.877l11.705-16.879q.22-.307.548-.482t.724-.176h4.077q.438 0 .81.22t.549.613m-18.457 9.645q-.176.395-.548.614t-.811.22h-4.078q-.789 0-1.315-.658l-5.7-8.199q-.218-.35-.24-.789t.153-.833.548-.613.811-.22h4.121q.746 0 1.272.658l5.699 8.198q.22.351.241.79t-.153.832m43.333-4.12q-.527-.088-.877-.527t-.351-.964v-3.332q0-.658.526-1.184.57-.438 1.271-.307 5.174.877 8.769 4.604 1.841 1.929 2.981 4.384.175.307.153.701t-.24.745-.549.548-.723.198h-3.727q-.394 0-.745-.198t-.57-.548q-.614-.92-1.14-1.446-1.973-2.017-4.778-2.675m-4.472-6.006q.526.526.526 1.184v3.332q0 .526-.35.964t-.878.526q-2.806.658-4.778 2.675-2.719 2.937-2.719 7.343t2.719 7.344q1.885 2.016 4.778 2.674.526.088.877.526t.35.964v3.332q0 .702-.57 1.184-.438.35-.964.35h-.263q-5.26-.964-8.768-4.646-4.56-4.691-4.56-11.728t4.56-11.727q3.551-3.727 8.768-4.604.702-.131 1.272.307m18.325 15.125q.044.307.044.921 0 .965-.131 2.236-.658 5.568-4.428 9.47-3.595 3.726-8.769 4.647h-.263q-.526 0-1.008-.35-.526-.527-.526-1.185v-3.332q0-.526.35-.964t.878-.526q2.893-.658 4.778-2.674 1.535-1.623 2.192-3.727h-9.294q-.658 0-1.096-.438t-.439-1.096v-3.113q0-.614.439-1.074t1.096-.46h14.643q.614 0 1.052.416t.482 1.03zm31.934 10.742q.658 0 1.097.46t.438 1.118v3.2q0 .614-.438 1.074t-1.097.46h-21.657q-.614 0-1.074-.46t-.46-1.074v-3.2q0-.658.46-1.118t1.074-.46zm-21.657-6.796q-.614 0-1.074-.46t-.46-1.074v-3.288q0-.614.46-1.075t1.074-.46h19.685q.657 0 1.118.46t.46 1.075v3.288q0 .613-.46 1.074t-1.118.46zm21.657-19.422q.658 0 1.097.46t.438 1.075v3.2q0 .658-.438 1.118t-1.097.46h-21.657q-.614 0-1.074-.46t-.46-1.118v-3.2q0-.614.46-1.074t1.074-.46zm37.59 0q.614 0 1.074.46t.46 1.075v29.374q0 .613-.46 1.074t-1.074.46h-3.858q-.79 0-1.271-.614L254.81 89.468q-.263-.35-.307-.789t.154-.833.57-.613.81-.22h3.859q.35 0 .701.154t.526.46l15.389 20.912V88.548q0-.614.438-1.074t1.096-.46zm-22.008 21.263q.613 0 1.074.439t.46 1.096v8.11q0 .614-.46 1.075t-1.074.46h-3.332q-.614 0-1.074-.46t-.46-1.074v-8.111q0-.658.46-1.096t1.074-.439zm76.45 9.12q.307.7-.153 1.424t-1.25.724H305.22q-.395 0-.745-.198t-.526-.504q-.483-.701-.132-1.447l1.36-3.2q.175-.438.57-.701t.832-.263h20.43l-7.19-17.186-5.875 14.029q-.175.438-.548.68t-.854.24h-3.683q-.833 0-1.315-.7-.176-.308-.22-.702t.088-.746l8.9-20.868q.175-.439.548-.702t.855-.263h4.209q.482 0 .855.263t.548.702zm12.644-17.362q.658 0 1.096.46t.439 1.119v16.396q0 .614-.439 1.074t-1.096.46h-3.332q-.614 0-1.074-.46t-.46-1.074v-16.396q0-.658.46-1.118t1.074-.46zm0-13.02q.658 0 1.096.46t.439 1.074v8.11q0 .658-.439 1.118t-1.096.46h-3.332q-.614 0-1.074-.46t-.46-1.118v-8.11q0-.614.46-1.074t1.074-.46z" fill="#fdcf44"/></svg>
