<?xml version="1.0" encoding="UTF-8"?>
<svg id="Layer_2" data-name="Layer 2" xmlns="http://www.w3.org/2000/svg" viewBox="0 0 162.67 78">
  <defs>
    <style>
      .cls-1 {
        fill: #fdcf44;
        stroke-width: 0px;
      }
    </style>
  </defs>
  <g id="Layer_1-2" data-name="Layer 1">
    <g>
      <path class="cls-1" d="M58.49,58.69c-12.91-5.25-19.47-5.82-26.42-6.43-6.85-.59-13.94-1.22-27.35-6.6-1,1.5-1.82,4.43-2.48,7.97,13.79,3.6,20.78,3.32,27.51,3.04,6.81-.28,13.85-.57,27.63,3.08,4.66,1.24,8.29,2.46,11.18,3.63-2.56-1.42-5.83-2.98-10.07-4.71M56.85,63.42c-13.47-3.58-20.05-3.31-27.02-3.02-6.86.28-13.97.56-27.95-3.06-.45,2.87-.82,5.75-1.1,8.64,13.64,1.62,20.4.45,26.92-.69,6.71-1.17,13.66-2.39,27.8-.58,5.53.71,9.7,1.57,12.91,2.51-2.85-1.2-6.58-2.47-11.55-3.79M28.05,68.97c-6.66,1.16-13.57,2.36-27.47.72-.28,3.16-.48,6.09-.58,8.26,13.97-.1,20.56-2.14,26.94-4.12,6.51-2.02,13.25-4.1,27.5-4.1,4.82,0,8.64.24,11.73.64-2.84-.72-6.4-1.39-10.93-1.97-13.82-1.77-20.31-.64-27.18.56M132.92,56.72c6.75.28,13.74.56,27.6-3.06-.69-3.85-1.51-6.84-2.47-7.99-13.49,5.42-20.59,6.04-27.46,6.64-6.95.6-13.51,1.17-26.42,6.43-4.24,1.73-7.51,3.29-10.07,4.71,2.89-1.18,6.52-2.4,11.18-3.64,13.77-3.66,20.82-3.37,27.63-3.09"/>
      <path class="cls-1" d="M157.02,42.21L142.4,0c-10.58,4.2-16.22,4.69-21.68,5.16-5.58.48-10.85.94-21.22,5.16-14.38,5.85-15.16,9.51-15.57,11.48-.2.94-.44,2-1.73,2.69v47.96s.02-.02.03-.03c.06-.09.12-.19.17-.31.11-.26.19-.58.29-1.04.65-3.06,1.74-8.17,20.73-15.9,13.2-5.38,20.22-5.98,27.02-6.57,6.66-.58,13.56-1.17,26.59-6.38"/>
      <path class="cls-1" d="M134.97,65.32c6.53,1.14,13.29,2.31,26.95.69-.27-2.89-.62-5.78-1.06-8.66-14.02,3.65-21.14,3.37-28.02,3.08-6.97-.29-13.55-.55-27.02,3.02-4.97,1.32-8.7,2.59-11.56,3.79,3.22-.93,7.38-1.8,12.91-2.5,14.14-1.81,21.08-.6,27.79.58M135.73,73.88c6.38,1.98,12.97,4.02,26.94,4.12-.12-2.52-.31-5.36-.56-8.26-13.92,1.64-20.83.45-27.49-.72-6.87-1.2-13.35-2.33-27.18-.56-4.53.58-8.09,1.25-10.93,1.97,3.09-.4,6.91-.65,11.73-.65,14.25,0,20.98,2.09,27.5,4.1M79.99,71.02c.05.26.1.46.15.66V24.48c-1.29-.69-1.53-1.74-1.73-2.69-.42-1.97-1.2-5.62-15.58-11.48-10.37-4.22-15.64-4.67-21.21-5.16-5.46-.47-11.1-.96-21.67-5.16L5.65,42.16c13.04,5.21,19.93,5.81,26.6,6.38,6.79.59,13.82,1.2,27.01,6.57,18.99,7.73,20.08,12.85,20.73,15.9"/>
    </g>
  </g>
</svg>